<svg width="141" height="48" viewBox="0 0 141 48" fill="none" xmlns="http://www.w3.org/2000/svg">
<path d="M107.154 2.33887V27.4783H112.328V16.9308H116.809V27.4783H121.956V2.33887H116.813V12.3542H112.324V2.33887H107.154Z" fill="#E31230"/>
<path d="M67.2578 2.33887V27.4783H71.9948V11.4958L74.7775 27.4783H77.9292L80.757 11.4958V27.4783H85.5091V2.33887H78.4639L76.3816 14.4232L74.303 2.33887H67.2578Z" fill="#E31230"/>
<path d="M37.5186 2.33887L40.6704 13.5686L43.8183 2.33887H48.9619L43.4154 19.2285V27.4783H37.9216V19.2285L32.375 2.33887H37.5186Z" fill="#E31230"/>
<path d="M59.8697 2.33887H53.0391L48.5469 27.4783H53.6566L54.5189 21.4811H58.3861L59.2446 27.4783H64.3882L59.8697 2.33887ZM56.4506 8.0212L57.7309 16.9308H55.1741L56.4506 8.0212Z" fill="#E31230"/>
<path d="M99.7479 2.33887H92.9022L88.4062 27.4783H93.5198L94.3821 21.4811H98.2454L99.1077 27.4783H104.251L99.7479 2.33887ZM96.3138 8.0212L97.594 16.9308H95.0373L96.3138 8.0212Z" fill="#E31230"/>
<path d="M136.219 2.33887H129.377L124.881 27.4783H129.994L130.853 21.4811H134.72L135.582 27.4783H140.726L136.219 2.33887ZM132.788 8.0212L134.05 16.9308H131.493L132.788 8.0212Z" fill="#E31230"/>
<path d="M130.501 34.0078C130.501 34.0078 129.323 34.0903 128.095 34.2027C128.208 33.9066 128.366 33.6442 128.517 33.2957C128.517 33.2957 126.721 33.7155 126.431 34.3564L125.956 34.4126C125.064 34.5363 124.337 35.4097 124.337 35.4097L125.994 35.2335C125.365 36.5791 124.322 38.7344 124.322 38.7344L126.077 38.5207C126.732 37.0439 127.248 35.9569 127.704 35.0311C128.012 34.9899 128.28 34.9561 128.483 34.9224C129.217 34.7709 129.906 34.457 130.501 34.0041" fill="white"/>
<path d="M79.1996 38.0259C80.1812 38.0259 80.8489 38.2508 81.2029 38.7006C81.5568 39.1504 81.5355 39.7514 81.1389 40.5035C80.6682 41.3956 80.2427 42.1415 79.1206 42.7187C78.0331 43.2995 76.8149 43.5949 75.581 43.5771C74.5944 43.5771 73.9355 43.3522 73.6079 42.8911C73.2803 42.4301 73.3067 41.8379 73.6907 41.0995C74.2811 40.0775 75.1543 39.2461 76.2061 38.7044C77.1312 38.2143 78.1715 37.98 79.2185 38.0259H79.1996ZM77.5428 39.1504C76.863 39.5367 76.3089 40.1091 75.9463 40.7996C75.163 42.2989 75.7956 42.8424 76.3868 42.8012C77.2642 42.7412 77.9495 42.1827 78.4917 41.3469C78.9511 40.6422 79.2448 40.05 79.2448 39.5327C79.2448 39.0155 78.8118 38.5244 77.5391 39.1579" fill="white"/>
<path d="M59.4118 36.6017C59.4118 36.6017 58.0675 36.5754 57.4048 37.3326C56.742 38.0897 54.2982 40.8822 54.2982 40.8822L53.7447 37.1077C53.0575 37.1932 52.3803 37.3451 51.7227 37.5612L52.4193 42.6101L54.2305 42.4077L59.4118 36.6017Z" fill="white"/>
<path d="M56.4824 41.5605C61.2796 42.0215 64.8267 40.5147 64.3899 39.349C64.1678 38.7868 63.5728 38.5019 62.1306 38.0521C61.2194 37.771 62.6314 36.8752 65.4367 36.9951L65.8961 36.3579C65.8961 36.3579 63.0005 36.3767 61.1403 36.9989C59.717 37.4749 58.8358 38.4082 59.9354 38.8355C61.0349 39.2628 61.8633 39.3902 62.1193 39.825C62.59 40.6272 59.9542 41.1407 57.1188 40.9045L56.4824 41.5605Z" fill="white"/>
<path d="M110.88 38.5171C110.436 38.7864 109.972 39.0231 109.494 39.2255C108.948 39.4617 107.769 39.8102 107.325 39.6003C106.655 39.278 107.197 38.4984 107.197 38.4984C107.197 38.4984 110.767 37.8424 110.962 37.7487C111.309 37.5913 112.228 36.2007 111.015 35.7097C109.912 35.2636 106.711 36.1257 105.676 38.4684C105.081 39.8177 105.732 40.2863 106.282 40.4549C106.985 40.6299 107.72 40.6369 108.427 40.4754C109.134 40.3138 109.792 39.9883 110.349 39.5254L110.88 38.5171ZM109.897 36.2682C110.605 36.1819 109.927 37.3364 109.599 37.4526C108.931 37.6589 108.246 37.8032 107.551 37.8836C107.551 37.8836 108.601 36.4256 109.897 36.2682Z" fill="white"/>
<path d="M50.3108 40.9121C49.7309 41.223 49.1294 41.4923 48.5109 41.7179C47.7955 41.9841 46.214 42.3739 45.555 42.119C44.5534 41.7442 45.1785 40.8371 45.1785 40.8371C45.1785 40.8371 49.8966 40.2524 50.2807 40.0237C50.6648 39.7951 51.7455 38.2433 49.9531 37.6623C48.3264 37.1338 44.0187 38.0934 43.0322 40.7959C42.4636 42.3514 43.4652 42.8986 44.271 43.101C46.5303 43.6745 48.9891 42.8312 49.7686 42.0703L50.3108 40.9121ZM48.4996 38.2883C49.4674 38.1983 48.7557 39.5664 48.3114 39.6564C47.3323 39.8588 45.5023 40.0312 45.5023 40.0312C45.5023 40.0312 46.7148 38.4607 48.5147 38.292" fill="white"/>
<path d="M117.536 38.7644C116.628 39.0193 116.18 39.0455 116.602 38.071C116.884 37.415 118.206 35.1099 118.206 35.1099C118.206 35.1099 117.14 35.1961 116.425 35.2748C114.094 35.5259 112.882 36.6654 112.309 37.5687C111.522 38.8169 111.68 39.7352 112.434 39.8926C113.563 40.1288 115.186 38.5995 115.186 38.5995C115.15 38.7308 115.148 38.8693 115.182 39.0013C115.216 39.1334 115.283 39.2544 115.378 39.3524C115.473 39.4504 115.593 39.5221 115.724 39.5603C115.855 39.5985 115.994 39.6019 116.127 39.5703C116.526 39.5441 116.913 39.4247 117.257 39.2217L117.536 38.7644ZM113.831 38.6257C113.262 38.7382 113.42 37.9248 113.793 37.3626C114.433 36.3955 115.367 36.0732 116.448 36.0357C116.448 36.0357 115.525 38.2846 113.831 38.6257Z" fill="white"/>
<path d="M91.7732 37.0215C93.3736 36.8865 93.3208 37.37 93.3208 37.37C94.3627 36.7393 95.5958 36.4975 96.8002 36.6879C96.4683 36.9747 96.0999 37.2167 95.7044 37.4075C94.6162 37.936 93.9497 37.0327 92.9142 38.4308C92.4435 39.0792 91.1067 41.718 91.1067 41.718L89.0508 42.0141C90.0336 40.2862 91.7732 37.0215 91.7732 37.0215Z" fill="white"/>
<path d="M119.968 34.9636C121.501 34.7687 121.279 35.3909 121.279 35.3909C122.259 34.7384 123.441 34.4565 124.611 34.5962C124.295 34.8898 123.942 35.1418 123.561 35.3459C122.518 35.9044 121.84 35.0385 120.846 36.4516C120.358 37.3249 119.934 38.2318 119.577 39.1653L117.814 39.3827C118.884 37.205 119.968 34.9673 119.968 34.9673" fill="white"/>
<path d="M83.7366 42.6738C81.5677 42.6926 81.805 41.5681 82.0648 40.9122C82.4152 40.1667 82.8088 39.4421 83.2434 38.7419C83.4612 38.4349 83.7329 38.1695 84.0454 37.9585C84.5908 37.7359 85.1609 37.5786 85.7436 37.49C85.7436 37.49 84.6441 39.4091 84.1847 40.4886C83.8082 41.3544 83.6463 41.9129 84.855 41.763C85.6872 41.6618 86.0637 41.2645 86.7038 40.2637C87.1708 39.5141 87.6979 38.4983 87.9615 37.9885C88.2251 37.4788 88.9029 37.2651 90.1982 37.2126C90.1982 37.2126 89.0045 39.3379 88.4284 40.4174C87.5963 41.9729 85.6683 42.6663 83.7366 42.6663" fill="white"/>
<path d="M69.1087 45.6799C71.4132 41.8979 73.3524 38.5844 76.0861 35.5071C76.0861 35.5071 73.8042 35.5821 73.4804 36.0544L70.6827 40.0425C70.6827 40.0425 69.7262 37.1489 69.4777 36.0881C68.8937 36.1094 68.3156 36.2129 67.7607 36.3955C67.7607 36.3955 68.9505 40.1437 69.4551 41.5231C69.4746 41.6193 69.47 41.7189 69.4418 41.813C69.4135 41.9071 69.3625 41.9929 69.2932 42.0628C69.1765 42.239 69.056 42.4114 68.9392 42.5801C66.3825 42.8537 47.4534 44.8702 44.9268 44.9752C42.8078 45.0371 40.704 44.6018 38.7853 43.7045C37.008 42.8462 36.27 42.1115 35.0198 41.4219C36.3867 41.1715 37.725 40.786 39.015 40.2711C43.1231 38.7269 45.8569 35.5671 40.2425 34.7088C35.916 34.0416 22.6013 36.5454 22.6013 36.5454C22.9317 36.7839 23.3073 36.953 23.7054 37.0426C24.1035 37.1321 24.5157 37.1402 24.917 37.0664C26.5588 36.7366 28.562 36.3692 30.5653 36.0769C29.398 37.8573 25.1731 44.2893 22.5938 48C22.5938 48 26.4006 47.8463 26.9692 46.9393C27.2328 46.5195 28.6185 44.0756 30.0682 41.5193C31.9246 42.5351 36.3039 45.3388 37.2226 45.7398C38.2506 46.1934 39.4141 46.2871 40.8601 46.1971C48.0785 45.7398 62.9145 43.7083 68.5213 43.2435L65.8553 47.1642C72.8892 46.1971 130.332 40.0425 130.332 40.0425L132.907 39.2404C132.907 39.2404 83.2029 44.5891 69.1426 45.6799H69.1087ZM33.3555 35.732C35.5809 35.5146 37.5691 35.4809 38.7364 35.8295C41.7487 36.7253 38.3221 38.8281 36.0666 39.7539C34.1239 40.4937 32.1208 41.0656 30.0795 41.4631C31.3748 39.1767 32.7154 36.8115 33.3555 35.732Z" fill="white"/>
<path d="M104.99 34.1091C104.587 34.7913 104.082 35.8146 103.589 36.8716L100.294 37.2689C100.863 35.972 101.352 34.8513 101.721 34.0341C101.255 34.0659 100.791 34.1234 100.332 34.2066C99.9747 34.2727 99.6244 34.3706 99.2849 34.4989C99.4883 34.5835 99.6624 34.7256 99.7857 34.9075C98.6146 37.0889 96.457 41.673 96.457 41.673L98.4188 41.4744C98.9385 40.3499 99.4318 39.188 99.8836 38.1647C100.731 37.9885 102.241 37.7899 103.22 37.6399C102.399 39.4466 101.714 41.1221 101.714 41.1221L103.45 40.9421C104.442 38.4055 105.601 35.9364 106.918 33.5506C106.918 33.5506 105.381 33.4532 104.997 34.1016" fill="white"/>
<path d="M4.74461e-07 14.8805C-0.000744173 11.9382 0.875047 9.06169 2.51662 6.61481C4.1582 4.16792 6.49184 2.26054 9.22243 1.13387C11.953 0.00719585 14.9579 -0.288168 17.8571 0.285129C20.7564 0.858426 23.4197 2.27463 25.5103 4.35466C27.601 6.43469 29.0251 9.08512 29.6024 11.9708C30.1798 14.8565 29.8846 17.8478 28.7542 20.5664C27.6237 23.2851 25.7087 25.609 23.2514 27.2443C20.7941 28.8796 17.9048 29.7528 14.9489 29.7536C12.9863 29.7541 11.0428 29.3697 9.22938 28.6226C7.41596 27.8754 5.76814 26.78 4.38 25.3989C2.99187 24.0178 1.8906 22.3781 1.13908 20.5733C0.387553 18.7686 0.000494902 16.8342 4.74461e-07 14.8805Z" fill="url(#paint0_radial_1411_16836)"/>
<path d="M14.9495 1.13281C12.1136 1.13207 9.34124 1.96953 6.98291 3.53928C4.62458 5.10904 2.78622 7.34059 1.7003 9.95174C0.614387 12.5629 0.329685 15.4364 0.8822 18.2088C1.43472 20.9812 2.79963 23.5281 4.80435 25.5273C6.80906 27.5265 9.36354 28.8883 12.1447 29.4405C14.926 29.9927 17.809 29.7104 20.4292 28.6294C23.0495 27.5484 25.2893 25.7172 26.8654 23.3674C28.4416 21.0176 29.2832 18.2547 29.284 15.4281C29.2845 13.5513 28.9141 11.6928 28.194 9.95867C27.4739 8.22456 26.4181 6.64879 25.087 5.32135C23.756 3.99392 22.1756 2.9408 20.4362 2.22213C18.6968 1.50345 16.8324 1.13331 14.9495 1.13281ZM26.819 22.5776L24.8207 22.1387C23.7245 23.7417 22.252 25.0535 20.5313 25.96C18.8107 26.8666 16.8938 27.3405 14.9476 27.3405C13.0013 27.3405 11.0845 26.8666 9.36382 25.96C7.64315 25.0535 6.17069 23.7417 5.07449 22.1387L3.07993 22.5776C3.00172 22.5872 2.92283 22.5659 2.86021 22.5182C2.79759 22.4705 2.75622 22.4003 2.745 22.3225C2.73658 22.2467 2.75669 22.1705 2.80145 22.1087L4.18259 20.6083C3.33742 18.8598 2.93351 16.932 3.00595 14.9924C3.0784 13.0529 3.62502 11.1604 4.59829 9.47933C5.57156 7.79829 6.94203 6.37964 8.59057 5.34668C10.2391 4.31372 12.1158 3.69773 14.0576 3.55224L14.6898 1.6092C14.7127 1.55558 14.751 1.5099 14.7999 1.47787C14.8488 1.44585 14.906 1.4289 14.9645 1.42915C15.0226 1.42864 15.0795 1.44554 15.1278 1.47764C15.1761 1.50975 15.2136 1.55558 15.2355 1.6092L15.8527 3.55224C17.7928 3.69876 19.6678 4.31533 21.3145 5.34838C22.9613 6.38143 24.33 7.79969 25.3017 9.47992C26.2735 11.1601 26.8189 13.0515 26.8905 14.9896C26.9621 16.9277 26.5577 18.8539 25.7126 20.6008L27.0937 22.1012C27.1269 22.1485 27.1462 22.2041 27.1495 22.2617C27.1529 22.3194 27.14 22.3768 27.1125 22.4276C27.0843 22.479 27.0412 22.5208 26.9889 22.5476C26.9366 22.5743 26.8774 22.5848 26.819 22.5776Z" fill="#56262B"/>
<path d="M26.8193 22.1697L23.8076 18.9686C23.6245 19.046 23.4279 19.0866 23.229 19.088C23.0301 19.0894 22.8329 19.0515 22.6488 18.9766C22.4647 18.9016 22.2973 18.7911 22.1563 18.6514C22.0153 18.5117 21.9035 18.3456 21.8274 18.1626C21.7761 18.0428 21.7406 17.9168 21.722 17.7878C21.6835 17.4451 21.5651 17.1162 21.3761 16.8272C21.1872 16.5383 20.9331 16.2973 20.634 16.1235L19.418 15.415L24.8391 12.2964L24.2481 11.2505L18.2246 14.7141L17.1781 14.1106V12.9223L23.2015 9.45879L22.6029 8.42797L17.1743 11.5467V10.1523C17.1736 9.80468 17.0919 9.462 16.9358 9.15113C16.7797 8.84025 16.5534 8.56963 16.2745 8.3605C16.1172 8.24095 15.9851 8.0917 15.8858 7.92129C15.7865 7.75088 15.7219 7.56264 15.6956 7.36734C15.6694 7.17204 15.6821 6.97351 15.733 6.7831C15.7839 6.59269 15.872 6.41413 15.9922 6.25764C16.0737 6.15215 16.1686 6.05765 16.2745 5.9765L15.0059 1.78951C15.0011 1.77434 14.9916 1.76108 14.9787 1.75165C14.9658 1.74221 14.9503 1.73709 14.9343 1.73703C14.9181 1.73573 14.9019 1.74033 14.8887 1.74997C14.8756 1.75961 14.8664 1.77365 14.8628 1.78951L13.5828 5.98025C13.7401 6.0998 13.8722 6.24905 13.9715 6.41947C14.0709 6.58988 14.1355 6.77812 14.1617 6.97342C14.188 7.16872 14.1753 7.36725 14.1244 7.55766C14.0735 7.74807 13.9854 7.92662 13.8652 8.08312C13.7837 8.18861 13.6888 8.28311 13.5828 8.36425C13.304 8.57337 13.0776 8.844 12.9215 9.15487C12.7654 9.46575 12.6838 9.80843 12.6831 10.156V11.5504L7.26198 8.42797L6.6634 9.45879L12.6868 12.9261V14.1256L11.6628 14.7291L5.63941 11.2505L5.04083 12.2814L10.4657 15.4L9.23089 16.1235C8.92831 16.2957 8.67076 16.5364 8.47911 16.8262C8.28746 17.1161 8.16712 17.4468 8.12784 17.7915C8.10232 17.987 8.03833 18.1756 7.93952 18.3465C7.84072 18.5173 7.70905 18.6671 7.55204 18.7872C7.39504 18.9073 7.21578 18.9954 7.02454 19.0465C6.8333 19.0975 6.63382 19.1105 6.43752 19.0848C6.30804 19.0659 6.18153 19.0306 6.06105 18.9798L3.04934 22.1772C3.0401 22.1904 3.03516 22.2061 3.03516 22.2222C3.03516 22.2383 3.0401 22.254 3.04934 22.2672C3.0577 22.2809 3.07026 22.2915 3.08517 22.2976C3.10007 22.3037 3.11654 22.3048 3.13216 22.3009L7.4088 21.3113C7.4595 20.9173 7.66519 20.5594 7.98071 20.3162C8.29622 20.073 8.69576 19.9645 9.09159 20.0144C9.22129 20.0301 9.34806 20.0641 9.46806 20.1156C9.78912 20.2512 10.1374 20.3109 10.4855 20.2901C10.8336 20.2693 11.1722 20.1685 11.4746 19.9956L12.6906 19.2984V25.5246H13.8878V18.5937L14.9306 17.9977L15.9771 18.5975V25.5246H17.1743V19.2834L18.3903 19.9806C18.6927 20.1535 19.0313 20.2543 19.3794 20.2751C19.7275 20.2959 20.0758 20.2362 20.3968 20.1006C20.6122 20.0086 20.8462 19.9679 21.0802 19.9818C21.3142 19.9956 21.5416 20.0637 21.7445 20.1806C21.9474 20.2974 22.1201 20.4598 22.2489 20.6548C22.3776 20.8498 22.4589 21.072 22.4862 21.3038L26.7666 22.2934C26.7822 22.2973 26.7987 22.2962 26.8136 22.2901C26.8285 22.284 26.8411 22.2734 26.8494 22.2597C26.8573 22.2437 26.8586 22.2254 26.8529 22.2085C26.8473 22.1917 26.8352 22.1777 26.8193 22.1697ZM14.9306 16.6183L13.8878 16.0185V14.8153L14.9306 14.2118L15.9771 14.8153V16.0148L14.9306 16.6183ZM13.8878 10.1523C13.8784 10.015 13.8964 9.87723 13.9408 9.74693C13.9852 9.61663 14.055 9.49638 14.1463 9.3931C14.2376 9.28983 14.3486 9.20558 14.4727 9.14522C14.5969 9.08485 14.7319 9.04957 14.8698 9.0414C15.0077 9.03324 15.1459 9.05235 15.2764 9.09764C15.4069 9.14292 15.5271 9.21349 15.63 9.30527C15.733 9.39704 15.8166 9.50821 15.8762 9.63235C15.9358 9.75649 15.9701 9.89115 15.9771 10.0286C15.9809 10.0697 15.9809 10.1111 15.9771 10.1523V12.2364L14.9306 12.8361L13.8878 12.2364V10.1523ZM10.876 18.9498C10.6368 19.0751 10.3581 19.1034 10.0984 19.0286C9.83863 18.9539 9.61803 18.782 9.48275 18.549C9.34746 18.3159 9.30801 18.0398 9.37264 17.7784C9.43727 17.517 9.60098 17.2907 9.82946 17.1468L11.6628 16.1235L12.7094 16.7232V17.9265L10.876 18.9498ZM20.4157 18.575C20.3467 18.6929 20.2552 18.7962 20.1461 18.8789C20.0371 18.9616 19.9128 19.0221 19.7803 19.0569C19.6478 19.0917 19.5097 19.1001 19.3739 19.0818C19.2381 19.0634 19.1072 19.0186 18.9889 18.9498L17.1743 17.9077V16.7045L18.2209 16.1235L20.0354 17.1656C20.2704 17.3033 20.4415 17.5275 20.5119 17.7898C20.5823 18.052 20.5464 18.3313 20.4119 18.5675L20.4157 18.575Z" fill="#56262B"/>
<path d="M14.9495 0.90625C12.1136 0.90551 9.34124 1.74186 6.98291 3.30955C4.62458 4.87723 2.78622 7.10583 1.7003 9.71353C0.614387 12.3212 0.329685 15.1909 0.8822 17.9597C1.43472 20.7285 2.79963 23.272 4.80435 25.2685C6.80906 27.2651 9.36354 28.6251 12.1447 29.1766C14.926 29.728 17.809 29.4461 20.4292 28.3665C23.0495 27.287 25.2893 25.4582 26.8654 23.1115C28.4416 20.7648 29.2832 18.0055 29.284 15.1826C29.2845 13.3083 28.9141 11.4523 28.194 9.72046C27.4739 7.98863 26.4181 6.41495 25.087 5.08926C23.756 3.76358 22.1756 2.71185 20.4362 1.99413C18.6968 1.2764 16.8324 0.906742 14.9495 0.90625ZM26.819 22.319L24.8207 21.8769C23.7245 23.4778 22.252 24.7878 20.5313 25.6932C18.8107 26.5986 16.8938 27.0718 14.9476 27.0718C13.0013 27.0718 11.0845 26.5986 9.36382 25.6932C7.64315 24.7878 6.17069 23.4778 5.07449 21.8769L3.07993 22.3152C3.0214 22.323 2.96187 22.3133 2.90892 22.2873C2.85597 22.2612 2.81201 22.2201 2.78263 22.1691C2.75148 22.1204 2.73494 22.0639 2.73494 22.0062C2.73494 21.9484 2.75148 21.8919 2.78263 21.8432L4.16377 20.3448C3.31982 18.5975 2.91746 16.6715 2.99169 14.7341C3.06592 12.7968 3.61449 10.9068 4.5897 9.22863C5.5649 7.55042 6.9372 6.13477 8.58727 5.10479C10.2373 4.07481 12.1152 3.46169 14.0576 3.31874L14.6898 1.37826C14.7127 1.32471 14.751 1.27909 14.7999 1.24711C14.8488 1.21513 14.906 1.1982 14.9645 1.19845C15.022 1.19814 15.0784 1.21466 15.1266 1.24596C15.1747 1.27726 15.2126 1.32196 15.2355 1.37451L15.8527 3.31874C17.7928 3.46506 19.6678 4.08082 21.3145 5.1125C22.9613 6.14419 24.33 7.56058 25.3017 9.23859C26.2735 10.9166 26.8189 12.8054 26.8905 14.741C26.9621 16.6765 26.5577 18.6002 25.7126 20.3448L27.0937 21.8432C27.1284 21.8901 27.1486 21.9459 27.1519 22.004C27.1552 22.0621 27.1415 22.1199 27.1124 22.1704C27.0832 22.2208 27.04 22.2617 26.9879 22.2881C26.9358 22.3145 26.8771 22.3252 26.819 22.319Z" fill="#230000"/>
<path d="M26.8247 21.9405L23.8146 18.7406C23.6317 18.8182 23.4351 18.8588 23.2363 18.8602C23.0375 18.8616 22.8404 18.8237 22.6564 18.7487C22.4724 18.6737 22.3051 18.5631 22.1642 18.4233C22.0233 18.2835 21.9116 18.1172 21.8355 17.9341C21.7842 17.8142 21.7487 17.6881 21.7301 17.559C21.6909 17.2139 21.5706 16.883 21.3791 16.5929C21.1875 16.3029 20.9301 16.0619 20.6277 15.8896L19.4274 15.1844L24.8456 12.0633L24.2473 11.0279L18.2271 14.4979L17.1849 13.8902V12.6897L23.2051 9.22349L22.6068 8.19187L17.1849 11.313V9.91749C17.1842 9.56965 17.1026 9.22671 16.9466 8.91559C16.7905 8.60447 16.5643 8.33363 16.2856 8.12435C16.1274 8.00465 15.9944 7.85488 15.8945 7.6837C15.7945 7.51251 15.7295 7.32329 15.7033 7.12695C15.6771 6.93061 15.6901 6.73103 15.7416 6.53973C15.7931 6.34842 15.8821 6.16918 16.0034 6.01234C16.0849 5.90677 16.1798 5.8122 16.2856 5.73099L15.0176 1.54825C15.0109 1.53554 15.0005 1.52515 14.9877 1.51846C14.975 1.51176 14.9605 1.50907 14.9462 1.51073C14.9299 1.50943 14.9137 1.51403 14.9006 1.52368C14.8874 1.53333 14.8782 1.54738 14.8747 1.56325L13.5954 5.74225C13.7526 5.86189 13.8846 6.01125 13.9839 6.1818C14.0832 6.35235 14.1478 6.54073 14.174 6.73618C14.2002 6.93163 14.1875 7.13032 14.1366 7.32088C14.0858 7.51144 13.9978 7.69013 13.8776 7.84675C13.7961 7.95232 13.7013 8.04689 13.5954 8.1281C13.3167 8.33738 13.0905 8.60822 12.9345 8.91934C12.7784 9.23046 12.6968 9.5734 12.6961 9.92124V11.3205L7.27798 8.19187L6.67972 9.22349L12.6999 12.6935V13.8902L11.6765 14.4979L5.65629 11.0279L5.05804 12.0633L10.4799 15.1844L9.26463 15.8821C8.96272 16.056 8.70578 16.2978 8.51436 16.5883C8.32293 16.8788 8.20233 17.2099 8.16219 17.5552C8.13668 17.7509 8.07272 17.9396 7.97397 18.1106C7.87522 18.2816 7.74362 18.4314 7.5867 18.5517C7.42978 18.6719 7.25062 18.76 7.05948 18.8111C6.86834 18.8622 6.66897 18.8752 6.47278 18.8494C6.34337 18.8306 6.21693 18.7953 6.09652 18.7444L3.08644 21.9443C3.07721 21.9575 3.07227 21.9732 3.07227 21.9893C3.07227 22.0054 3.07721 22.0211 3.08644 22.0343C3.0948 22.048 3.10735 22.0587 3.12225 22.0648C3.13715 22.0709 3.15361 22.072 3.16921 22.0681L7.45106 21.0777C7.50699 20.6838 7.71758 20.3281 8.03651 20.0889C8.35544 19.8497 8.75659 19.7466 9.15175 19.8023C9.26934 19.8172 9.38446 19.8475 9.49415 19.8923C9.81427 20.0306 10.1625 20.0921 10.5108 20.0719C10.859 20.0517 11.1977 19.9504 11.4996 19.776L12.7149 19.0783V25.298H13.9114V18.3655L14.9537 17.7653L15.9997 18.3655V25.298H17.1962V19.0558L18.4115 19.7535C18.7109 19.9277 19.0465 20.0309 19.3924 20.055C19.7382 20.079 20.0849 20.0234 20.4057 19.8923C20.7739 19.7393 21.1881 19.7382 21.5571 19.8895C21.9261 20.0407 22.2197 20.3318 22.3735 20.6988C22.4245 20.8189 22.4599 20.945 22.4789 21.074L26.757 22.0643C26.7746 22.0688 26.7933 22.0671 26.8098 22.0595C26.8263 22.0519 26.8397 22.0388 26.8476 22.0225C26.8556 22.0062 26.8577 21.9876 26.8535 21.9699C26.8493 21.9523 26.8391 21.9366 26.8247 21.9255V21.9405ZM14.9424 16.3886L13.9002 15.7883V14.5842L14.9424 13.9802L15.9884 14.5842V15.7846L14.9424 16.3886ZM13.9002 9.91749C13.8908 9.78011 13.9088 9.64225 13.9532 9.51185C13.9975 9.38146 14.0673 9.26111 14.1586 9.15775C14.2498 9.0544 14.3607 8.97008 14.4848 8.90967C14.6089 8.84926 14.7438 8.81395 14.8817 8.80578C15.0195 8.7976 15.1577 8.81673 15.2881 8.86205C15.4185 8.90738 15.5386 8.978 15.6415 9.06985C15.7444 9.16169 15.828 9.27294 15.8875 9.39718C15.9471 9.52142 15.9814 9.65618 15.9884 9.7937C15.9922 9.83488 15.9922 9.87631 15.9884 9.91749V12.0145L14.9424 12.6147L13.9002 12.0145V9.91749ZM10.8901 18.7219C10.6509 18.8473 10.3724 18.8756 10.1128 18.8008C9.85324 18.726 9.63275 18.554 9.49754 18.3207C9.36233 18.0875 9.3229 17.8112 9.38749 17.5496C9.45209 17.288 9.61571 17.0615 9.84407 16.9175L11.6765 15.8746L12.7225 16.4748V17.679L10.8901 18.7219ZM20.4245 18.3468C20.3556 18.4648 20.2641 18.5682 20.1551 18.6509C20.0462 18.7337 19.9219 18.7942 19.7895 18.829C19.657 18.8639 19.519 18.8723 19.3833 18.854C19.2476 18.8356 19.1168 18.7907 18.9985 18.7219L17.1849 17.679V16.4748L18.2309 15.8746L20.0445 16.9175C20.2823 17.0554 20.4555 17.2818 20.5261 17.547C20.5966 17.8122 20.5588 18.0944 20.4207 18.3317L20.4245 18.3468Z" fill="#230000"/>
<path d="M26.8384 21.641L23.8252 18.4434C23.6416 18.5207 23.4444 18.5609 23.245 18.5618C23.0457 18.5627 22.8482 18.5241 22.6639 18.4485C22.4796 18.3728 22.3123 18.2615 22.1715 18.121C22.0308 17.9805 21.9194 17.8136 21.844 17.63C21.7952 17.5095 21.761 17.3837 21.7423 17.2551C21.7021 16.9101 21.5814 16.5792 21.3897 16.2889C21.1981 15.9986 20.9409 15.7569 20.6387 15.5832L19.4334 14.8898L24.8572 11.7672L24.2583 10.7363L18.2318 14.2L17.1847 13.6002V12.3819L23.2112 8.91822L22.6199 7.88361L17.1885 11.0212V9.62296C17.1892 9.27564 17.1082 8.93299 16.9519 8.62247C16.7955 8.31195 16.5683 8.04221 16.2883 7.83487C16.1309 7.71532 15.9988 7.56606 15.8994 7.39564C15.8 7.22522 15.7353 7.03697 15.7091 6.84166C15.6829 6.64635 15.6956 6.44781 15.7465 6.25739C15.7974 6.06697 15.8855 5.88841 16.0058 5.7319C16.0873 5.62641 16.1823 5.53191 16.2883 5.45076L15.019 1.25981C15.014 1.24481 15.0044 1.23175 14.9916 1.2225C14.9787 1.21324 14.9633 1.20825 14.9474 1.20825C14.9315 1.20825 14.9161 1.21324 14.9032 1.2225C14.8904 1.23175 14.8808 1.24481 14.8758 1.25981L13.5952 5.45076C13.7526 5.57031 13.8848 5.71957 13.9841 5.88999C14.0835 6.06042 14.1482 6.24866 14.1744 6.44397C14.2007 6.63928 14.188 6.83782 14.137 7.02824C14.0861 7.21866 13.998 7.39723 13.8777 7.55373C13.7962 7.65922 13.7012 7.75373 13.5952 7.83487C13.3152 8.04221 13.088 8.31195 12.9316 8.62247C12.7753 8.93299 12.6943 9.27564 12.695 9.62296V11.0212L7.27116 7.88361L6.67228 8.93322L12.6988 12.3969V13.5965L11.6743 14.2L5.64778 10.7363L5.0489 11.7672L10.4765 14.886L9.25991 15.587C8.95285 15.7568 8.69044 15.9964 8.49408 16.2863C8.29771 16.5762 8.17295 16.9081 8.12994 17.2551C8.1044 17.4506 8.04038 17.6392 7.94152 17.8101C7.84267 17.9809 7.71093 18.1307 7.55385 18.2508C7.39676 18.371 7.21742 18.4591 7.02608 18.5101C6.83473 18.5612 6.63515 18.5742 6.43876 18.5484C6.30922 18.5296 6.18263 18.4943 6.0621 18.4434L3.04885 21.6447C3.03994 21.6574 3.03516 21.6724 3.03516 21.6879C3.03516 21.7033 3.03994 21.7183 3.04885 21.731C3.05783 21.7416 3.06975 21.7494 3.08314 21.7534C3.09652 21.7574 3.11079 21.7574 3.12419 21.7535L7.41053 20.7638C7.46126 20.3698 7.66705 20.0118 7.98273 19.7686C8.2984 19.5255 8.69815 19.4169 9.09418 19.4668C9.22394 19.4825 9.35077 19.5166 9.47083 19.568C9.79177 19.7042 10.14 19.7646 10.4883 19.7444C10.8366 19.7242 11.1755 19.6241 11.4784 19.4518L12.7025 18.7546V24.996H13.9003V18.0648L14.9436 17.465L15.9907 18.0686V24.996H17.1885V18.7546L18.4051 19.4556C18.708 19.6278 19.0469 19.728 19.3952 19.7481C19.7435 19.7683 20.0917 19.7079 20.4127 19.5718C20.7813 19.4188 21.1959 19.4178 21.5653 19.5689C21.9346 19.7201 22.2286 20.011 22.3826 20.3777C22.4336 20.4977 22.469 20.6237 22.4881 20.7526L26.7669 21.7535C26.7829 21.7571 26.7997 21.7553 26.8146 21.7486C26.8296 21.7418 26.8419 21.7304 26.8497 21.716C26.8556 21.7038 26.8577 21.6901 26.8557 21.6768C26.8536 21.6634 26.8476 21.6509 26.8384 21.641ZM14.9436 16.0893L13.9003 15.4895V14.2862L14.9436 13.6865L15.9907 14.2862V15.4895L14.9436 16.0893ZM13.9003 9.62296C13.8909 9.48568 13.909 9.34792 13.9534 9.21762C13.9978 9.08732 14.0677 8.96706 14.159 8.86378C14.2504 8.7605 14.3614 8.67624 14.4856 8.61587C14.6098 8.55551 14.7448 8.52022 14.8828 8.51206C15.0209 8.50389 15.1591 8.523 15.2897 8.56829C15.4202 8.61358 15.5405 8.68415 15.6435 8.77593C15.7465 8.86771 15.8302 8.97888 15.8898 9.10303C15.9494 9.22718 15.9837 9.36184 15.9907 9.49926C15.9945 9.5404 15.9945 9.58181 15.9907 9.62296V11.7072L14.9436 12.3107L13.9003 11.7072V9.62296ZM10.8871 18.4209C10.6477 18.5463 10.3688 18.5745 10.109 18.4998C9.84913 18.4251 9.62841 18.2532 9.49306 18.0201C9.35771 17.787 9.31823 17.5109 9.3829 17.2495C9.44756 16.9881 9.61135 16.7617 9.83996 16.6179L11.6743 15.5757L12.7214 16.1793V17.3788L10.8871 18.4209ZM20.4315 18.0461C20.293 18.283 20.0657 18.4556 19.7994 18.5259C19.5332 18.5962 19.2498 18.5584 19.0115 18.4209L17.196 17.3788V16.1755L18.2431 15.5757L20.0586 16.6179C20.2983 16.7572 20.4725 16.9854 20.5432 17.2525C20.6138 17.5196 20.575 17.8037 20.4353 18.0423L20.4315 18.0461Z" fill="url(#paint1_radial_1411_16836)"/>
<path d="M14.9457 12.3847V12.303L13.9161 11.7051L13.8457 11.7459L14.9457 12.3847Z" fill="#EBEBEB"/>
<path d="M14.9446 8.60436V8.5332C14.6428 8.5332 14.3534 8.65158 14.1399 8.8623C13.9265 9.07302 13.8066 9.35881 13.8066 9.65681V11.7804L13.8787 11.7392V9.64557C13.8782 9.5087 13.9051 9.37308 13.958 9.24653C14.0108 9.11999 14.0884 9.00501 14.1865 8.90822C14.2845 8.81144 14.4009 8.73476 14.5291 8.68261C14.6573 8.63046 14.7946 8.60387 14.9332 8.60436H14.9446Z" fill="url(#paint2_linear_1411_16836)"/>
<path d="M14.9457 13.593L13.8457 14.2316L13.9161 14.2727L14.9457 13.6752V13.593Z" fill="#222B33"/>
<path d="M14.9456 1.28364V1.20825C14.9294 1.20831 14.9137 1.21346 14.9007 1.22295C14.8876 1.23243 14.878 1.24577 14.8732 1.26102L13.5801 5.47494L13.664 5.44856L14.9456 1.28364Z" fill="white"/>
<path d="M12.7814 11.1388V9.62384C12.7793 9.2875 12.8564 8.95542 13.0062 8.65458C13.1561 8.35375 13.3746 8.09264 13.6439 7.89249C13.8068 7.77014 13.9439 7.61668 14.0474 7.44094C14.151 7.26519 14.2189 7.07063 14.2472 6.86845C14.2755 6.66627 14.2637 6.46046 14.2125 6.26286C14.1613 6.06527 14.0717 5.87979 13.9487 5.71711C13.8709 5.6123 13.7796 5.51821 13.6774 5.43726L13.5956 5.46338C13.7509 5.58238 13.8813 5.73095 13.9794 5.90059C14.0775 6.07023 14.1414 6.25761 14.1673 6.45202C14.1931 6.64643 14.1806 6.84405 14.1304 7.0336C14.0801 7.22314 13.9931 7.40088 13.8744 7.55667C13.7939 7.66167 13.7002 7.75574 13.5956 7.83652C13.3192 8.0429 13.0949 8.3114 12.9406 8.62049C12.7863 8.92958 12.7063 9.27066 12.707 9.61637V11.0082L12.7814 11.1388Z" fill="url(#paint3_linear_1411_16836)"/>
<path d="M6.67578 8.93701L12.7112 12.3847L12.7828 12.3436L6.7738 8.91089L6.67578 8.93701Z" fill="#808080"/>
<path d="M12.707 13.5894L12.7829 13.6307V12.3469L12.707 12.3882V13.5894Z" fill="white"/>
<path d="M6.77084 8.92192L7.28269 7.99156L7.2571 7.8916L6.67578 8.94883L6.77084 8.92192Z" fill="white"/>
<path d="M12.7118 11.0149L7.2832 7.8916L7.30956 7.98921L12.7833 11.1388L12.7118 11.0149Z" fill="#EBEBEB"/>
<path d="M14.9453 12.3847V12.303L15.9747 11.7051L16.0453 11.7459L14.9453 12.3847Z" fill="white"/>
<path d="M14.9453 8.60436V8.5332C15.2471 8.5332 15.5366 8.65158 15.75 8.8623C15.9634 9.07302 16.0833 9.35881 16.0833 9.65681V11.7804L16.0112 11.7392V9.64557C16.0117 9.5087 15.9848 9.37308 15.9319 9.24653C15.8791 9.11999 15.8015 9.00501 15.7035 8.90822C15.6054 8.81144 15.489 8.73476 15.3608 8.68261C15.2327 8.63046 15.0953 8.60387 14.9567 8.60436H14.9453Z" fill="url(#paint4_linear_1411_16836)"/>
<path d="M14.9453 13.593L16.0453 14.2316L15.975 14.2727L14.9453 13.6752V13.593Z" fill="#808080"/>
<path d="M14.9453 1.27987V1.20825C14.9615 1.20831 14.9772 1.21346 14.9903 1.22295C15.0033 1.23243 15.0129 1.24577 15.0178 1.26102L16.3109 5.47494L16.2269 5.44856L14.9453 1.27987Z" fill="white"/>
<path d="M17.104 11.1388V9.62284C17.1055 9.28676 17.0286 8.95497 16.8792 8.6541C16.7298 8.35324 16.5121 8.09166 16.2437 7.89036C15.9166 7.64318 15.7005 7.27619 15.6425 6.86966C15.5846 6.46313 15.6896 6.05014 15.9346 5.72102C16.0138 5.61484 16.1064 5.51945 16.2102 5.43726L16.2921 5.46339C16.1365 5.58248 16.0058 5.73114 15.9075 5.90089C15.8093 6.07064 15.7454 6.25814 15.7194 6.45268C15.6935 6.64722 15.706 6.84497 15.7564 7.03464C15.8067 7.22431 15.8938 7.40217 16.0128 7.55805C16.0934 7.66313 16.1873 7.75726 16.2921 7.83809C16.5689 8.0446 16.7936 8.31328 16.9482 8.62257C17.1028 8.93186 17.1829 9.27317 17.1822 9.61911V11.0118L17.104 11.1388Z" fill="url(#paint5_linear_1411_16836)"/>
<path d="M23.2145 8.93701L17.179 12.3847L17.1074 12.3436L23.1165 8.91089L23.2145 8.93701Z" fill="#222B33"/>
<path d="M17.1833 13.5895L17.1074 13.6307V12.3469L17.1833 12.3881V13.5895Z" fill="#444B52"/>
<path d="M23.1193 8.92202L22.6074 7.9912L22.633 7.8916L23.2143 8.94883L23.1193 8.92202Z" fill="#B3B3B3"/>
<path d="M17.1789 11.0151L22.6076 7.8916L22.5812 7.98909L17.1074 11.1388L17.1789 11.0151Z" fill="white"/>
<path d="M12.7829 16.1228L12.707 16.1641V17.3653L12.7829 17.4066V16.1228Z" fill="white"/>
<path d="M9.4703 18.03L9.40625 18.0674C9.55715 18.3188 9.80124 18.5017 10.0864 18.5771C10.3715 18.6525 10.6751 18.6143 10.9322 18.4708L12.7822 17.41L12.7106 17.3689L10.8945 18.411C10.6544 18.5466 10.37 18.5826 10.1033 18.5112C9.83653 18.4399 9.60902 18.2669 9.4703 18.03Z" fill="url(#paint6_linear_1411_16836)"/>
<path d="M13.8457 15.522L14.9457 16.1606V16.0822L13.9161 15.481L13.8457 15.522Z" fill="#EBEBEB"/>
<path d="M3.09908 21.6807L3.03516 21.7184C3.04414 21.7312 3.05711 21.7408 3.07207 21.7455C3.08702 21.7503 3.10312 21.75 3.11789 21.7447L7.39733 20.7481L7.32964 20.6917L3.09908 21.6807Z" fill="url(#paint7_linear_1411_16836)"/>
<path d="M12.7836 18.6147L11.4587 19.3712C11.1656 19.5415 10.8369 19.6408 10.4987 19.6611C10.1605 19.6815 9.82229 19.6224 9.51096 19.4885C9.2875 19.3929 9.04484 19.351 8.80235 19.3661C8.55986 19.3813 8.32425 19.4529 8.11432 19.5755C7.91247 19.6968 7.74004 19.8615 7.60948 20.0578C7.47893 20.254 7.3935 20.4769 7.35938 20.7102L7.42732 20.767C7.47816 20.3693 7.6844 20.0082 8.00076 19.7628C8.31712 19.5174 8.71773 19.4079 9.11462 19.4582C9.24466 19.4741 9.37177 19.5085 9.49209 19.5604C9.81372 19.6978 10.1627 19.7587 10.5118 19.7383C10.8608 19.718 11.2004 19.6169 11.504 19.4431L12.7119 18.7434L12.7836 18.6147Z" fill="url(#paint8_linear_1411_16836)"/>
<path d="M13.8836 24.996V18.0521L13.8457 18.0107V24.9246L13.8836 24.996Z" fill="#444B52"/>
<path d="M14.9457 17.4556V17.3689L13.8457 18.0429L13.9161 18.0863L14.9457 17.4556Z" fill="#222B33"/>
<path d="M13.8127 24.9204H12.7773L12.707 24.9959H13.8829L13.8127 24.9204Z" fill="#666666"/>
<path d="M12.707 18.7388V24.9959L12.7829 24.9245V18.6147L12.707 18.7388Z" fill="white"/>
<path d="M12.7825 16.155L12.7097 16.1984L11.6484 15.5677L11.6445 15.481L12.7825 16.155Z" fill="#808080"/>
<path d="M9.46963 18.0485L9.40563 18.0863C9.2588 17.8292 9.21796 17.5247 9.29184 17.2378C9.36572 16.9509 9.54846 16.7044 9.80096 16.5511L11.6835 15.481V15.5641L9.85367 16.6154C9.61541 16.7551 9.44201 16.984 9.37144 17.2519C9.30087 17.5198 9.33889 17.8049 9.47716 18.0447L9.46963 18.0485Z" fill="url(#paint9_linear_1411_16836)"/>
<path d="M13.8457 15.5186V14.2349L13.8836 14.2762V15.4774L13.8457 15.5186Z" fill="#444B52"/>
<path d="M3.1126 21.7109L3.0488 21.7488C3.03992 21.736 3.03516 21.7208 3.03516 21.7052C3.03516 21.6896 3.03992 21.6744 3.0488 21.6616L6.05095 18.426L6.06971 18.5132L3.1126 21.7109Z" fill="white"/>
<path d="M10.6202 14.8767L9.2861 15.6267C8.99113 15.7946 8.74009 16.0287 8.55314 16.31C8.3662 16.5914 8.24858 16.9122 8.20973 17.2467C8.18015 17.4828 8.09641 17.709 7.96489 17.9081C7.83338 18.1073 7.65757 18.274 7.45093 18.3956C7.24429 18.5172 7.01229 18.5904 6.77266 18.6097C6.53303 18.6289 6.29212 18.5937 6.06836 18.5067V18.4204C6.43658 18.5692 6.84916 18.5689 7.21712 18.4195C7.58509 18.27 7.87896 17.9835 8.03539 17.6217C8.08475 17.5013 8.11911 17.3753 8.13772 17.2467C8.18084 16.9024 8.30385 16.5726 8.49715 16.2831C8.69045 15.9936 8.94879 15.7523 9.25199 15.578L10.4762 14.8767H10.6202Z" fill="url(#paint10_linear_1411_16836)"/>
<path d="M5.61328 10.7234L11.6445 14.1901V14.2727L5.63967 10.8172L5.61328 10.7234Z" fill="#EBEBEB"/>
<path d="M12.7097 13.593L12.7825 13.6339L11.6445 14.2727V14.191L12.7097 13.593Z" fill="white"/>
<path d="M5.65183 10.8195L5.13998 11.7537L5.04492 11.7806L5.62624 10.7234L5.65183 10.8195Z" fill="white"/>
<path d="M10.4777 14.8766L5.04492 11.7688L5.14288 11.7427L10.6209 14.8766H10.4777Z" fill="#808080"/>
<path d="M17.1074 16.155L17.1805 16.1984L18.2454 15.5677V15.481L17.1074 16.155Z" fill="#222B33"/>
<path d="M20.4301 18.0485L20.4899 18.0863C20.6348 17.8279 20.6736 17.5223 20.5981 17.2353C20.5226 16.9482 20.3387 16.7026 20.086 16.5511L18.2461 15.481V15.5641L20.0486 16.6154C20.2868 16.7546 20.4607 16.9836 20.5322 17.2522C20.6037 17.5209 20.567 17.8072 20.4301 18.0485Z" fill="url(#paint11_linear_1411_16836)"/>
<path d="M16.0446 15.5186V14.2349L15.9688 14.2762V15.4774L16.0446 15.5186Z" fill="white"/>
<path d="M26.7812 21.6773L26.8412 21.711C26.8501 21.6984 26.8549 21.6833 26.8549 21.6679C26.8549 21.6524 26.8501 21.6374 26.8412 21.6248L23.8391 18.426L23.8203 18.5085L26.7812 21.6773Z" fill="#CCCCCC"/>
<path d="M19.2695 14.8767L20.5943 15.6267C20.888 15.7951 21.1381 16.0292 21.3248 16.3104C21.5116 16.5916 21.6297 16.9122 21.67 17.2467C21.6995 17.4828 21.7829 17.709 21.9138 17.9081C22.0448 18.1073 22.2199 18.274 22.4256 18.3956C22.6314 18.5172 22.8625 18.5904 23.1011 18.6097C23.3397 18.6289 23.5797 18.5937 23.8025 18.5067L23.8214 18.4242C23.6377 18.503 23.44 18.5447 23.24 18.5469C23.0399 18.5491 22.8414 18.5118 22.656 18.4372C22.4705 18.3625 22.3019 18.2519 22.1598 18.112C22.0178 17.972 21.9052 17.8053 21.8285 17.6217C21.7796 17.5012 21.7454 17.3753 21.7266 17.2467C21.6837 16.9024 21.5612 16.5726 21.3687 16.2831C21.1762 15.9936 20.9189 15.7523 20.617 15.578L19.413 14.8767H19.2695Z" fill="url(#paint12_linear_1411_16836)"/>
<path d="M24.2773 10.7234L18.2461 14.1901V14.2727L24.2509 10.8209L24.2773 10.7234Z" fill="white"/>
<path d="M17.1802 13.593L17.1074 13.6341L18.2454 14.2727V14.1905L17.1802 13.593Z" fill="#EBEBEB"/>
<path d="M24.2383 10.8233L24.7501 11.7537L24.8452 11.7806L24.2639 10.7234L24.2383 10.8233Z" fill="#B3B3B3"/>
<path d="M19.4127 14.8766L24.8455 11.7688L24.7476 11.7427L19.2695 14.8766H19.4127Z" fill="#222B33"/>
<path d="M17.1074 16.1228L17.1833 16.1641V17.3653L17.1074 17.4066V16.1228Z" fill="#444B52"/>
<path d="M20.4226 18.0342L20.4825 18.0717C20.3327 18.3198 20.0934 18.5003 19.8143 18.5759C19.5353 18.6515 19.2379 18.6163 18.984 18.4777L17.1445 17.4102L17.2157 17.3689L19.0215 18.4175C19.2586 18.5502 19.5381 18.5844 19.8 18.5127C20.0619 18.4411 20.2855 18.2693 20.4226 18.0342Z" fill="url(#paint13_linear_1411_16836)"/>
<path d="M16.0453 15.522L14.9453 16.1606V16.0784L15.975 15.481L16.0453 15.522Z" fill="white"/>
<path d="M26.796 21.7132L26.8563 21.7471C26.8492 21.7613 26.8375 21.7727 26.8232 21.7795C26.8089 21.7864 26.7927 21.7882 26.7772 21.7848L22.4941 20.7858L22.5582 20.7292L26.796 21.7132Z" fill="url(#paint14_linear_1411_16836)"/>
<path d="M17.1074 18.6526L18.4315 19.3998C18.7236 19.5679 19.0512 19.6659 19.3882 19.686C19.7252 19.7062 20.0623 19.6478 20.3725 19.5156C20.5614 19.4355 20.7644 19.3933 20.9697 19.3913C21.1751 19.3894 21.3789 19.4276 21.5693 19.504C21.7597 19.5803 21.9331 19.6933 22.0796 19.8363C22.226 19.9793 22.3426 20.1496 22.4226 20.3374C22.4748 20.4568 22.5115 20.5824 22.5317 20.711L22.4677 20.7671C22.4394 20.5348 22.3566 20.3124 22.2259 20.1177C22.0953 19.9231 21.9204 19.7616 21.7154 19.6463C21.5154 19.5299 21.2905 19.4622 21.0591 19.4485C20.8277 19.4349 20.5963 19.4758 20.3838 19.5679C20.0635 19.7024 19.7162 19.7616 19.3691 19.7409C19.022 19.7201 18.6844 19.62 18.3826 19.4483L17.1789 18.7759L17.1074 18.6526Z" fill="url(#paint15_linear_1411_16836)"/>
<path d="M15.9688 24.996V18.0521L16.0446 18.0107V24.9246L15.9688 24.996Z" fill="white"/>
<path d="M14.949 17.4556L14.9453 17.3689H14.949L16.0453 18.0429L15.975 18.0863L14.949 17.4556Z" fill="#808080"/>
<path d="M16.0413 24.9204H17.1101L17.1826 24.9959H15.9688L16.0413 24.9204Z" fill="#666666"/>
<path d="M17.1833 18.7759V24.996L17.1074 24.925V18.6526L17.1833 18.7759Z" fill="#444B52"/>
<path d="M15.2173 1.07891L15.8369 3.02055L15.8936 2.95282L15.2853 1.05257C15.2558 0.987134 15.2081 0.931466 15.1479 0.892131C15.0876 0.852797 15.0173 0.831436 14.9453 0.830566V0.902061C15.0029 0.90269 15.059 0.919667 15.1072 0.950996C15.1554 0.982325 15.1936 1.0267 15.2173 1.07891Z" fill="url(#paint16_linear_1411_16836)"/>
<path d="M27.1605 21.5091L25.8056 20.0498H25.7188L27.1039 21.5389C27.1393 21.5856 27.1599 21.6416 27.1632 21.6999C27.1666 21.7581 27.1525 21.816 27.1228 21.8665L27.187 21.9C27.2182 21.844 27.235 21.7814 27.236 21.7175C27.2329 21.6421 27.2066 21.5694 27.1605 21.5091Z" fill="url(#paint17_linear_1411_16836)"/>
<path d="M27.0946 21.8815C27.0644 21.9326 27.0185 21.9734 26.9633 21.9982C26.9081 22.0229 26.8463 22.0305 26.7865 22.0197L24.8066 21.5979L24.8405 21.6743L26.7752 22.0888H26.8353C26.9009 22.0884 26.9652 22.0714 27.0219 22.0395C27.0786 22.0076 27.1256 21.9619 27.1584 21.907L27.0946 21.8815Z" fill="url(#paint18_linear_1411_16836)"/>
<path d="M24.8115 21.5979C23.7153 23.2035 22.2434 24.5173 20.5236 25.4252C18.8038 26.3331 16.8883 26.8077 14.9433 26.8077C12.9983 26.8077 11.0827 26.3331 9.36293 25.4252C7.64317 24.5173 6.17124 23.2035 5.07501 21.5979L5.04492 21.6768C6.14844 23.2825 7.62642 24.5956 9.35126 25.5028C11.0761 26.41 12.996 26.8841 14.9451 26.8841C16.8943 26.8841 18.8142 26.41 20.539 25.5028C22.2639 24.5956 23.7419 23.2825 24.8454 21.6768L24.8115 21.5979Z" fill="url(#paint19_linear_1411_16836)"/>
<path d="M3.01836 22.0888H3.06807L5.05248 21.6737L5.08307 21.5979L3.0566 22.0202C2.99723 22.0267 2.93712 22.0169 2.88352 21.992C2.82992 21.967 2.78513 21.9279 2.75454 21.8794L2.69336 21.9119C2.72687 21.9653 2.77438 22.0096 2.8313 22.0405C2.88823 22.0715 2.95265 22.0881 3.01836 22.0888Z" fill="url(#paint20_linear_1411_16836)"/>
<path d="M2.72901 21.5228C2.68051 21.5887 2.6543 21.6689 2.6543 21.7512C2.65529 21.8165 2.67197 21.8805 2.70286 21.9377L2.76263 21.9035C2.73172 21.854 2.71529 21.7965 2.71529 21.7379C2.71529 21.6792 2.73172 21.6218 2.76263 21.5723L4.13364 20.0498H4.04772L2.72901 21.5228Z" fill="url(#paint21_linear_1411_16836)"/>
<path d="M2.91995 14.8905C2.91642 16.6755 3.31459 18.4385 4.0851 20.0496H4.17154C3.32891 18.3024 2.92668 16.3765 2.99981 14.439C3.07293 12.5015 3.6192 10.6112 4.59114 8.93215C5.56309 7.25315 6.93131 5.83628 8.57695 4.80466C10.2226 3.77303 12.0958 3.15785 14.034 3.01256L13.9814 2.94507C10.9708 3.18704 8.16179 4.55003 6.11242 6.76318C4.06306 8.97633 2.9234 11.8776 2.91995 14.8905Z" fill="url(#paint22_linear_1411_16836)"/>
<path d="M14.5911 1.05537L13.9961 2.95317L14.0482 3.02055L14.6729 1.08531C14.6946 1.03081 14.7321 0.984154 14.7805 0.951434C14.829 0.918714 14.8861 0.90145 14.9444 0.901894V0.830773C14.8699 0.82828 14.7964 0.848358 14.7334 0.888403C14.6705 0.928449 14.6209 0.986616 14.5911 1.05537Z" fill="url(#paint23_linear_1411_16836)"/>
<path fill-rule="evenodd" clip-rule="evenodd" d="M14.9457 29.1495C22.8645 29.1495 29.284 22.7595 29.284 14.8769C29.284 7.00061 22.8747 0.614436 14.9646 0.604248C12.1292 0.607934 9.35796 1.4462 6.99968 3.01385C4.63514 4.58566 2.79194 6.82013 1.70317 9.4347C0.978668 11.1745 0.609874 13.0306 0.607422 14.8958C0.617684 22.7697 7.03321 29.1495 14.9457 29.1495ZM24.8844 21.6301L26.888 22.0733C26.9462 22.0796 27.0051 22.0688 27.0573 22.0424C27.1095 22.0159 27.1529 21.9749 27.1821 21.9243C27.2113 21.8737 27.2251 21.8158 27.2218 21.7575C27.2185 21.6993 27.1982 21.6433 27.1634 21.5963L25.7786 20.0939C26.626 18.3447 27.0314 16.416 26.9596 14.4754C26.8878 12.5347 26.341 10.6409 25.3667 8.9585C24.3924 7.27608 23.0201 5.85596 21.369 4.82156C19.7179 3.78716 17.8381 3.16978 15.8928 3.02308L15.274 1.07373C15.251 1.02104 15.2131 0.976224 15.1648 0.944839C15.1165 0.913454 15.06 0.896889 15.0023 0.897201C14.9437 0.896953 14.8862 0.913925 14.8372 0.945993C14.7883 0.978061 14.7499 1.0238 14.7268 1.07749L14.0929 3.02308C12.1455 3.1664 10.2627 3.78113 8.60826 4.81383C6.95385 5.84652 5.57793 7.26589 4.60016 8.94851C3.6224 10.6311 3.07238 12.5261 2.99796 14.4685C2.92353 16.4109 3.32695 18.342 4.17312 20.0939L2.78834 21.5963C2.75712 21.6451 2.74053 21.7018 2.74053 21.7597C2.74053 21.8176 2.75712 21.8742 2.78834 21.9231C2.8178 21.9742 2.86188 22.0154 2.91497 22.0415C2.96805 22.0676 3.02774 22.0774 3.08643 22.0696L5.08624 21.6301C6.18532 23.2352 7.66165 24.5487 9.38686 25.4564C11.1121 26.3641 13.0339 26.8386 14.9853 26.8386C16.9367 26.8386 18.8586 26.3641 20.5838 25.4564C22.309 24.5487 23.7853 23.2352 24.8844 21.6301Z" fill="url(#paint24_radial_1411_16836)"/>
<path d="M26.9703 14.8804C26.965 11.8695 25.821 8.97066 23.7655 6.75958C21.71 4.54851 18.8934 3.18688 15.8749 2.94507L15.8184 3.00504C17.764 3.14956 19.6446 3.7646 21.2966 4.79665C22.9487 5.82871 24.322 7.2465 25.2972 8.92668C26.2724 10.6069 26.8199 12.4985 26.892 14.4371C26.9641 16.3756 26.5588 18.3023 25.7111 20.0496H25.7978C26.5737 18.4358 26.9744 16.6691 26.9703 14.8804Z" fill="url(#paint25_linear_1411_16836)"/>
<defs>
<radialGradient id="paint0_radial_1411_16836" cx="0" cy="0" r="1" gradientUnits="userSpaceOnUse" gradientTransform="translate(11.9677 9.46016) scale(20.3701 20.2768)">
<stop stop-color="#F88D9D"/>
<stop offset="0.14" stop-color="#F98494"/>
<stop offset="0.3" stop-color="#F77588"/>
<stop offset="0.48" stop-color="#F45F7A"/>
<stop offset="0.66" stop-color="#F23E58"/>
<stop offset="0.72" stop-color="#EF3550"/>
<stop offset="1" stop-color="#E31230"/>
</radialGradient>
<radialGradient id="paint1_radial_1411_16836" cx="0" cy="0" r="1" gradientUnits="userSpaceOnUse" gradientTransform="translate(-2.83801 -2.87528) scale(37.9676 37.7866)">
<stop offset="0.21" stop-color="#9AA2B8"/>
<stop offset="0.35" stop-color="#CED2DE"/>
<stop offset="0.46" stop-color="#F4F4FA"/>
<stop offset="0.54" stop-color="#F4F4FA"/>
<stop offset="0.55" stop-color="#F4F4FA"/>
<stop offset="0.63" stop-color="#B6BED0"/>
<stop offset="0.74" stop-color="#737B95"/>
<stop offset="0.77" stop-color="#7A829B"/>
<stop offset="0.81" stop-color="#8E94AB"/>
<stop offset="0.85" stop-color="#AFB3C5"/>
<stop offset="0.88" stop-color="#CACCDB"/>
<stop offset="0.92" stop-color="#E6E7F0"/>
<stop offset="0.94" stop-color="#F4F4FA"/>
</radialGradient>
<linearGradient id="paint2_linear_1411_16836" x1="17.6609" y1="10.1567" x2="15.3846" y2="10.1567" gradientUnits="userSpaceOnUse">
<stop stop-color="white"/>
<stop offset="0.18" stop-color="#CDCDCD"/>
<stop offset="0.37" stop-color="#9F9F9F"/>
<stop offset="0.55" stop-color="#7C7C7C"/>
<stop offset="0.72" stop-color="#626262"/>
<stop offset="0.88" stop-color="#525252"/>
<stop offset="1" stop-color="#4D4D4D"/>
</linearGradient>
<linearGradient id="paint3_linear_1411_16836" x1="13.4846" y1="6.40569" x2="13.4846" y2="11.6656" gradientUnits="userSpaceOnUse">
<stop stop-color="#BDBFC1"/>
<stop offset="0.11" stop-color="#C6C7C9"/>
<stop offset="0.28" stop-color="#DDDEDF"/>
<stop offset="0.48" stop-color="white"/>
<stop offset="1" stop-color="#E8E7E8"/>
</linearGradient>
<linearGradient id="paint4_linear_1411_16836" x1="17.6616" y1="10.1567" x2="15.3853" y2="10.1567" gradientUnits="userSpaceOnUse">
<stop stop-color="#F2F2F2"/>
<stop offset="0.05" stop-color="#E6E6E6"/>
<stop offset="0.27" stop-color="#B8B8B8"/>
<stop offset="0.48" stop-color="#959595"/>
<stop offset="0.68" stop-color="#7B7B7B"/>
<stop offset="0.86" stop-color="#6B6B6B"/>
<stop offset="1" stop-color="#666666"/>
</linearGradient>
<linearGradient id="paint5_linear_1411_16836" x1="16.4039" y1="6.26041" x2="16.4039" y2="12.34" gradientUnits="userSpaceOnUse">
<stop stop-color="#4D4D4D"/>
<stop offset="0.07" stop-color="#525252"/>
<stop offset="0.15" stop-color="#616161"/>
<stop offset="0.24" stop-color="#7A7A7A"/>
<stop offset="0.34" stop-color="#9C9C9C"/>
<stop offset="0.44" stop-color="#C8C8C8"/>
<stop offset="0.54" stop-color="white"/>
<stop offset="0.63" stop-color="#CBCBCB"/>
<stop offset="0.71" stop-color="#9E9E9E"/>
<stop offset="0.8" stop-color="#7B7B7B"/>
<stop offset="0.87" stop-color="#616161"/>
<stop offset="0.94" stop-color="#525252"/>
<stop offset="1" stop-color="#4D4D4D"/>
</linearGradient>
<linearGradient id="paint6_linear_1411_16836" x1="11.7948" y1="19.0097" x2="11.6027" y2="18.6552" gradientUnits="userSpaceOnUse">
<stop stop-color="white"/>
<stop offset="1" stop-color="#666666"/>
</linearGradient>
<linearGradient id="paint7_linear_1411_16836" x1="5.61696" y1="21.6522" x2="5.70647" y2="21.7456" gradientUnits="userSpaceOnUse">
<stop stop-color="white"/>
<stop offset="0.08" stop-color="#E5E5E5"/>
<stop offset="0.25" stop-color="#AFAFAF"/>
<stop offset="0.43" stop-color="#838383"/>
<stop offset="0.59" stop-color="#606060"/>
<stop offset="0.74" stop-color="#474747"/>
<stop offset="0.88" stop-color="#383838"/>
<stop offset="1" stop-color="#333333"/>
</linearGradient>
<linearGradient id="paint8_linear_1411_16836" x1="13.5027" y1="17.8041" x2="8.60558" y2="20.0599" gradientUnits="userSpaceOnUse">
<stop stop-color="#1A1A1A"/>
<stop offset="0.12" stop-color="#1E1E1E"/>
<stop offset="0.23" stop-color="#292929"/>
<stop offset="0.33" stop-color="#3C3C3C"/>
<stop offset="0.43" stop-color="#565656"/>
<stop offset="0.53" stop-color="#787878"/>
<stop offset="0.63" stop-color="#9C9C9C"/>
<stop offset="0.76" stop-color="#646464"/>
<stop offset="0.86" stop-color="#3C3C3C"/>
<stop offset="0.95" stop-color="#232323"/>
<stop offset="1" stop-color="#1A1A1A"/>
</linearGradient>
<linearGradient id="paint9_linear_1411_16836" x1="11.4084" y1="18.7741" x2="11.0319" y2="17.9178" gradientUnits="userSpaceOnUse">
<stop stop-color="#666666"/>
<stop offset="1" stop-color="#333333"/>
</linearGradient>
<linearGradient id="paint10_linear_1411_16836" x1="11.6954" y1="15.2107" x2="6.67149" y2="17.894" gradientUnits="userSpaceOnUse">
<stop stop-color="#E0E0E0"/>
<stop offset="0.15" stop-color="#D6D6D6"/>
<stop offset="0.41" stop-color="#BCBCBC"/>
<stop offset="0.59" stop-color="#A6A6A6"/>
<stop offset="0.62" stop-color="#BFBFBF"/>
<stop offset="0.68" stop-color="#DBDBDB"/>
<stop offset="0.73" stop-color="#EFEFEF"/>
<stop offset="0.78" stop-color="#FBFBFB"/>
<stop offset="0.83" stop-color="white"/>
<stop offset="1" stop-color="#ADADAD"/>
</linearGradient>
<linearGradient id="paint11_linear_1411_16836" x1="22.3855" y1="18.7214" x2="21.4971" y2="18.1403" gradientUnits="userSpaceOnUse">
<stop stop-color="#FEFEFE"/>
<stop offset="0.25" stop-color="#C8C8C8"/>
<stop offset="0.49" stop-color="#9E9E9E"/>
<stop offset="0.7" stop-color="#7F7F7F"/>
<stop offset="0.87" stop-color="#6D6D6D"/>
<stop offset="1" stop-color="#666666"/>
</linearGradient>
<linearGradient id="paint12_linear_1411_16836" x1="20.8942" y1="16.747" x2="25.5024" y2="16.747" gradientUnits="userSpaceOnUse">
<stop stop-color="#E0E0E0"/>
<stop offset="0.15" stop-color="#D6D6D6"/>
<stop offset="0.41" stop-color="#BCBCBC"/>
<stop offset="0.59" stop-color="#A6A6A6"/>
<stop offset="0.65" stop-color="#BFBFBF"/>
<stop offset="0.74" stop-color="#DBDBDB"/>
<stop offset="0.83" stop-color="#EFEFEF"/>
<stop offset="0.91" stop-color="#FBFBFB"/>
<stop offset="1" stop-color="white"/>
</linearGradient>
<linearGradient id="paint13_linear_1411_16836" x1="21.7421" y1="19.6768" x2="20.8551" y2="19.0942" gradientUnits="userSpaceOnUse">
<stop stop-color="white"/>
<stop offset="0.12" stop-color="#F8F8F8"/>
<stop offset="0.31" stop-color="#E5E5E5"/>
<stop offset="0.52" stop-color="#C5C5C5"/>
<stop offset="0.76" stop-color="#999999"/>
<stop offset="1" stop-color="#666666"/>
</linearGradient>
<linearGradient id="paint14_linear_1411_16836" x1="27.279" y1="20.0517" x2="27.1714" y2="20.1016" gradientUnits="userSpaceOnUse">
<stop stop-color="#CCCCCC"/>
<stop offset="0.12" stop-color="#BABABA"/>
<stop offset="0.32" stop-color="#A1A1A1"/>
<stop offset="0.53" stop-color="#8E8E8E"/>
<stop offset="0.75" stop-color="#848484"/>
<stop offset="1" stop-color="#808080"/>
</linearGradient>
<linearGradient id="paint15_linear_1411_16836" x1="18.7037" y1="19.7141" x2="24.1917" y2="19.7141" gradientUnits="userSpaceOnUse">
<stop stop-color="#999999"/>
<stop offset="0.09" stop-color="#949494"/>
<stop offset="0.19" stop-color="#868686"/>
<stop offset="0.3" stop-color="#6F6F6F"/>
<stop offset="0.41" stop-color="#4F4F4F"/>
<stop offset="0.52" stop-color="#262626"/>
<stop offset="0.55" stop-color="#1A1A1A"/>
<stop offset="0.6" stop-color="#202020"/>
<stop offset="0.66" stop-color="#313131"/>
<stop offset="0.73" stop-color="#4E4E4E"/>
<stop offset="0.8" stop-color="#767676"/>
<stop offset="0.88" stop-color="#A9A9A9"/>
<stop offset="0.97" stop-color="#E6E6E6"/>
<stop offset="1" stop-color="white"/>
</linearGradient>
<linearGradient id="paint16_linear_1411_16836" x1="17.4325" y1="1.92616" x2="15.5815" y2="1.92616" gradientUnits="userSpaceOnUse">
<stop stop-color="#CCCCCC"/>
<stop offset="1" stop-color="#3D3D3D"/>
</linearGradient>
<linearGradient id="paint17_linear_1411_16836" x1="25.9029" y1="22.1014" x2="26.3157" y2="21.2324" gradientUnits="userSpaceOnUse">
<stop stop-color="white"/>
<stop offset="0.14" stop-color="#FAFAFA"/>
<stop offset="0.31" stop-color="#ECECEC"/>
<stop offset="0.48" stop-color="#D5D5D5"/>
<stop offset="0.67" stop-color="#B4B4B4"/>
<stop offset="0.86" stop-color="#8B8B8B"/>
<stop offset="1" stop-color="#666666"/>
</linearGradient>
<linearGradient id="paint18_linear_1411_16836" x1="3187.22" y1="-560.051" x2="3187.63" y2="-555.966" gradientUnits="userSpaceOnUse">
<stop stop-color="white"/>
<stop offset="0.14" stop-color="#FAFAFA"/>
<stop offset="0.31" stop-color="#ECECEC"/>
<stop offset="0.48" stop-color="#D5D5D5"/>
<stop offset="0.67" stop-color="#B4B4B4"/>
<stop offset="0.86" stop-color="#8B8B8B"/>
<stop offset="1" stop-color="#666666"/>
</linearGradient>
<linearGradient id="paint19_linear_1411_16836" x1="25917.9" y1="-6489.59" x2="25565.5" y2="-5169.62" gradientUnits="userSpaceOnUse">
<stop stop-color="white"/>
<stop offset="1" stop-color="#231A16"/>
</linearGradient>
<linearGradient id="paint20_linear_1411_16836" x1="4.67472" y1="23.3321" x2="4.19612" y2="22.2542" gradientUnits="userSpaceOnUse">
<stop stop-color="#F2F2F2"/>
<stop offset="1" stop-color="#1A1A1A"/>
</linearGradient>
<linearGradient id="paint21_linear_1411_16836" x1="1746.36" y1="-2236.95" x2="1737.6" y2="-2222.38" gradientUnits="userSpaceOnUse">
<stop stop-color="#F2F2F2"/>
<stop offset="1" stop-color="#1A1A1A"/>
</linearGradient>
<linearGradient id="paint22_linear_1411_16836" x1="14740.6" y1="-20768.4" x2="12650.8" y2="-19410.5" gradientUnits="userSpaceOnUse">
<stop stop-color="white"/>
<stop offset="1" stop-color="#231A16"/>
</linearGradient>
<linearGradient id="paint23_linear_1411_16836" x1="1226.85" y1="-2247.73" x2="1213.19" y2="-2247.73" gradientUnits="userSpaceOnUse">
<stop stop-color="#CCCCCC"/>
<stop offset="1" stop-color="#3D3D3D"/>
</linearGradient>
<radialGradient id="paint24_radial_1411_16836" cx="0" cy="0" r="1" gradientUnits="userSpaceOnUse" gradientTransform="translate(-6.46282 -4.29598) scale(45.7062 45.344)">
<stop offset="0.21" stop-color="#9AA2B8"/>
<stop offset="0.35" stop-color="#CED2DE"/>
<stop offset="0.46" stop-color="#F4F4FA"/>
<stop offset="0.54" stop-color="#F4F4FA"/>
<stop offset="0.55" stop-color="#F4F4FA"/>
<stop offset="0.63" stop-color="#B6BED0"/>
<stop offset="0.74" stop-color="#737B95"/>
<stop offset="0.77" stop-color="#7A829B"/>
<stop offset="0.81" stop-color="#8E94AB"/>
<stop offset="0.85" stop-color="#AFB3C5"/>
<stop offset="0.88" stop-color="#CACCDB"/>
<stop offset="0.92" stop-color="#E6E7F0"/>
<stop offset="0.94" stop-color="#F4F4FA"/>
</radialGradient>
<linearGradient id="paint25_linear_1411_16836" x1="30.343" y1="18.9702" x2="13.2956" y2="1.82589" gradientUnits="userSpaceOnUse">
<stop stop-color="white"/>
<stop offset="1" stop-color="#231A16"/>
</linearGradient>
</defs>
</svg>
